<svg width="125" height="22" viewBox="0 0 125 22" fill="none" xmlns="http://www.w3.org/2000/svg">
<path d="M27.9743 18.2194C27.1821 18.2194 26.3839 18.0853 25.5795 17.8172C24.7873 17.5491 24.0987 17.22 23.5137 16.83L24.8299 14.8922C25.4149 15.2334 26.0121 15.4894 26.6215 15.66C27.2309 15.8306 27.8281 15.9159 28.4131 15.9159C28.8153 15.9159 29.1017 15.8672 29.2723 15.7697C29.4551 15.6722 29.5465 15.5381 29.5465 15.3675C29.5465 15.2578 29.5099 15.1664 29.4368 15.0933C29.3759 15.0202 29.2662 14.9592 29.1078 14.9105C28.9615 14.8495 28.7543 14.7947 28.4862 14.7459C28.2303 14.685 27.9134 14.6119 27.5356 14.5266C26.9018 14.3925 26.3656 14.2341 25.9268 14.0512C25.5003 13.8562 25.1468 13.6369 24.8665 13.3931C24.5984 13.1494 24.4034 12.8812 24.2815 12.5887C24.1596 12.2841 24.0987 11.955 24.0987 11.6016C24.0987 11.1506 24.2023 10.7423 24.4095 10.3767C24.6167 10.0111 24.9092 9.70031 25.287 9.44437C25.6648 9.18844 26.1218 8.99344 26.6581 8.85938C27.1943 8.71312 27.7915 8.64 28.4496 8.64C29.3149 8.64 30.0828 8.78016 30.7531 9.06047C31.4356 9.32859 32.0206 9.615 32.5081 9.91969L31.1187 11.7844C30.6434 11.5041 30.1498 11.2969 29.6379 11.1628C29.126 11.0166 28.6324 10.9434 28.1571 10.9434C27.8646 10.9434 27.6331 10.9861 27.4624 11.0714C27.2918 11.1567 27.2065 11.2847 27.2065 11.4553C27.2065 11.5528 27.237 11.632 27.2979 11.693C27.371 11.7539 27.4807 11.8148 27.627 11.8758C27.7732 11.9245 27.9682 11.9733 28.212 12.022C28.4557 12.0708 28.7543 12.1378 29.1078 12.2231C29.7903 12.3816 30.357 12.5522 30.8079 12.735C31.271 12.9178 31.6367 13.1311 31.9048 13.3748C32.1851 13.6064 32.3801 13.8745 32.4898 14.1792C32.5995 14.4717 32.6543 14.8069 32.6543 15.1847C32.6543 15.6112 32.5507 16.0134 32.3435 16.3912C32.1485 16.7569 31.8499 17.0798 31.4478 17.3602C31.0578 17.6283 30.5703 17.8416 29.9853 18C29.4124 18.1463 28.7421 18.2194 27.9743 18.2194ZM38.4606 18V11.3091H34.9872V8.85938H41.605V18H38.4606ZM39.9231 7.61625C39.3381 7.61625 38.8567 7.45172 38.4789 7.12266C38.1011 6.78141 37.9122 6.33656 37.9122 5.78812C37.9122 5.23969 38.1011 4.79484 38.4789 4.45359C38.8567 4.10016 39.3381 3.92344 39.9231 3.92344C40.5081 3.92344 40.9895 4.10016 41.3673 4.45359C41.7452 4.79484 41.9341 5.23969 41.9341 5.78812C41.9341 6.33656 41.7452 6.78141 41.3673 7.12266C40.9895 7.45172 40.5081 7.61625 39.9231 7.61625ZM45.766 18V8.85938H48.3254L48.5447 9.95625H48.6179C48.9835 9.60281 49.4161 9.29812 49.9158 9.04219C50.4155 8.77406 51.0005 8.64 51.6708 8.64C52.6824 8.64 53.4197 8.98125 53.8829 9.66375C54.346 10.3341 54.5775 11.2359 54.5775 12.3694V18H51.4332V12.7716C51.4332 12.2597 51.3539 11.888 51.1955 11.6564C51.0493 11.4248 50.775 11.3091 50.3729 11.3091C50.0804 11.3091 49.8244 11.37 49.605 11.4919C49.3857 11.6137 49.1541 11.7844 48.9104 12.0037V18H45.766ZM62.6141 18.2194C61.8585 18.2194 61.2187 18.1219 60.6946 17.9269C60.1827 17.7319 59.7623 17.4577 59.4332 17.1042C59.1163 16.7386 58.8848 16.3059 58.7385 15.8062C58.5923 15.2944 58.5191 14.7337 58.5191 14.1244V11.3091H56.3254V8.96906L58.6654 8.85938L59.0676 6.11719H61.6635V8.85938H65.2832V11.3091H61.6635V14.0695C61.6635 14.7277 61.8098 15.1786 62.1023 15.4223C62.407 15.6539 62.8518 15.7697 63.4368 15.7697C63.7537 15.7697 64.0462 15.7453 64.3143 15.6966C64.5946 15.6356 64.8566 15.5625 65.1004 15.4772L65.6488 17.7441C65.2467 17.8537 64.7957 17.9573 64.296 18.0548C63.7963 18.1645 63.2357 18.2194 62.6141 18.2194ZM72.552 18.2194C71.8329 18.2194 71.1565 18.1158 70.5228 17.9086C69.9012 17.6892 69.3589 17.3784 68.8958 16.9762C68.4448 16.5619 68.0853 16.0561 67.8172 15.4589C67.5612 14.8617 67.4333 14.1853 67.4333 13.4297C67.4333 12.6862 67.5673 12.0159 67.8354 11.4187C68.1036 10.8216 68.457 10.3219 68.8958 9.91969C69.3467 9.50531 69.8586 9.18844 70.4314 8.96906C71.0164 8.74969 71.6136 8.64 72.2229 8.64C72.942 8.64 73.5697 8.75578 74.1059 8.98734C74.6544 9.21891 75.1114 9.53578 75.477 9.93797C75.8426 10.3402 76.1169 10.8094 76.2997 11.3456C76.4825 11.8819 76.5739 12.4547 76.5739 13.0641C76.5739 13.3444 76.5556 13.6064 76.519 13.8502C76.4947 14.0939 76.4703 14.2706 76.4459 14.3803H70.5776C70.7117 14.8922 70.9798 15.2639 71.382 15.4955C71.7842 15.727 72.3204 15.8428 72.9908 15.8428C73.3564 15.8428 73.7098 15.8002 74.0511 15.7148C74.4045 15.6173 74.7823 15.4772 75.1845 15.2944L76.2083 17.1591C75.6598 17.5125 75.0565 17.7806 74.3984 17.9634C73.7403 18.1341 73.1248 18.2194 72.552 18.2194ZM72.3326 11.0166C71.4308 11.0166 70.8519 11.4553 70.5959 12.3328H73.7951C73.6611 11.4553 73.1736 11.0166 72.3326 11.0166ZM84.5374 18.2194C83.7817 18.2194 83.1419 18.1219 82.6178 17.9269C82.106 17.7319 81.6855 17.4577 81.3564 17.1042C81.0396 16.7386 80.808 16.3059 80.6617 15.8062C80.5155 15.2944 80.4424 14.7337 80.4424 14.1244V11.3091H78.2486V8.96906L80.5886 8.85938L80.9908 6.11719H83.5867V8.85938H87.2064V11.3091H83.5867V14.0695C83.5867 14.7277 83.733 15.1786 84.0255 15.4223C84.3302 15.6539 84.775 15.7697 85.36 15.7697C85.6769 15.7697 85.9694 15.7453 86.2375 15.6966C86.5178 15.6356 86.7799 15.5625 87.0236 15.4772L87.5721 17.7441C87.1699 17.8537 86.7189 17.9573 86.2192 18.0548C85.7196 18.1645 85.1589 18.2194 84.5374 18.2194ZM93.2687 18V11.3091H89.7952V8.85938H96.413V18H93.2687ZM94.7312 7.61625C94.1462 7.61625 93.6648 7.45172 93.2869 7.12266C92.9091 6.78141 92.7202 6.33656 92.7202 5.78812C92.7202 5.23969 92.9091 4.79484 93.2869 4.45359C93.6648 4.10016 94.1462 3.92344 94.7312 3.92344C95.3162 3.92344 95.7976 4.10016 96.1754 4.45359C96.5532 4.79484 96.7421 5.23969 96.7421 5.78812C96.7421 6.33656 96.5532 6.78141 96.1754 7.12266C95.7976 7.45172 95.3162 7.61625 94.7312 7.61625ZM100.684 18V16.3181L104.888 11.3091H101.196V8.85938H109.239V10.5412L104.998 15.5503H109.349V18H100.684ZM114.314 18.2194C113.839 18.2194 113.419 18.1463 113.053 18C112.687 17.8416 112.377 17.6344 112.121 17.3784C111.865 17.1225 111.67 16.8239 111.536 16.4827C111.414 16.1414 111.353 15.7819 111.353 15.4041C111.353 14.8922 111.456 14.4412 111.664 14.0512C111.883 13.6612 112.218 13.3322 112.669 13.0641C113.132 12.7837 113.729 12.5644 114.461 12.4059C115.192 12.2475 116.082 12.1378 117.13 12.0769C117.069 11.7478 116.886 11.5102 116.581 11.3639C116.289 11.2055 115.887 11.1262 115.375 11.1262C114.985 11.1262 114.583 11.1933 114.168 11.3273C113.766 11.4492 113.291 11.6381 112.742 11.8941L111.645 9.84656C112.34 9.45656 113.047 9.15797 113.766 8.95078C114.485 8.74359 115.228 8.64 115.996 8.64C116.642 8.64 117.227 8.72531 117.751 8.89594C118.288 9.05437 118.738 9.31031 119.104 9.66375C119.482 10.005 119.768 10.4498 119.963 10.9983C120.17 11.5345 120.274 12.1744 120.274 12.9178V18H117.715L117.495 17.0494H117.422C116.971 17.3784 116.484 17.6587 115.96 17.8903C115.436 18.1097 114.887 18.2194 114.314 18.2194ZM115.338 15.8062C115.704 15.8062 116.033 15.7392 116.325 15.6052C116.618 15.4589 116.886 15.2944 117.13 15.1116V13.9416C116.569 13.9659 116.106 14.0147 115.74 14.0878C115.387 14.1487 115.107 14.2341 114.899 14.3437C114.692 14.4534 114.546 14.5753 114.461 14.7094C114.388 14.8434 114.351 14.9897 114.351 15.1481C114.351 15.5869 114.68 15.8062 115.338 15.8062Z" fill="white"/>
<path d="M12.7883 19.6783L17.8589 5.94482C17.9202 5.77883 17.8724 5.58688 17.7355 5.44915C17.5985 5.31142 17.396 5.25159 17.2124 5.29464L2.02716 8.85634C1.84234 8.89969 1.70886 9.03981 1.68321 9.2175C1.65753 9.39517 1.74407 9.5794 1.90633 9.6923L5.95425 12.5097L5.27897 15.5241C5.24454 15.6778 5.29689 15.8438 5.41831 15.9659C5.53974 16.088 5.71401 16.1499 5.88209 16.1306L9.17947 15.7531L11.8793 19.7215C11.9881 19.8816 12.1799 19.9755 12.3718 19.9664C12.565 19.9572 12.7266 19.8454 12.7883 19.6783ZM6.43474 15.0981L6.97656 12.6792L11.7068 10.5966L9.08065 14.7952L6.43474 15.0981ZM10.0108 15.2649L13.4668 9.73975C13.5774 9.56293 13.5425 9.32918 13.3812 9.16699C13.2199 9.0048 12.9713 8.95345 12.7721 9.04115L6.54729 11.7818L3.34024 9.54967L16.5662 6.44752L12.1498 18.409L10.0108 15.2649Z" fill="#33FF00" stroke="#33FF00" stroke-width="0.5"/>
</svg>
