<svg width="50" height="50" viewBox="0 0 50 50" fill="none" xmlns="http://www.w3.org/2000/svg">
<path d="M49.8728 14.7C49.7561 12.0437 49.3263 10.2166 48.7105 8.63407C48.0754 6.95421 47.0982 5.45069 45.8184 4.2C44.5684 2.93055 43.0535 1.94374 41.393 1.31874C39.8009 0.703463 37.9833 0.273615 35.3263 0.156253C32.6491 0.0291703 31.7991 0 25.0097 0C18.22 0 17.3701 0.0291703 14.703 0.146523C12.0458 0.263885 10.2189 0.693753 8.6364 1.30903C6.95579 1.94376 5.45141 2.92014 4.20079 4.2C2.93088 5.45069 1.9443 6.96457 1.31886 8.62499C0.703335 10.2166 0.273595 12.0334 0.15649 14.6903C0.0293843 17.3666 0 18.2167 0 25.0048C0 31.793 0.0293851 32.6431 0.146578 35.3097C0.263683 37.9666 0.693771 39.793 1.3093 41.3757C1.9443 43.0556 2.93088 44.5597 4.20079 45.8097C5.45141 47.0791 6.9657 48.0659 8.62649 48.6909C10.2189 49.3062 12.0359 49.7361 14.6934 49.8535C17.3603 49.9708 18.2104 50 25.0002 50C31.7903 50 32.6395 49.9708 35.307 49.8535C37.964 49.7361 39.7912 49.3062 41.3737 48.6909C44.7342 47.3916 47.3912 44.7354 48.6912 41.3757C49.3061 39.7833 49.736 37.9666 49.8535 35.3097C49.9711 32.6431 50 31.793 50 25.0048C50 18.2167 49.9904 17.3666 49.8728 14.7ZM45.3693 35.1145C45.2623 37.5562 44.8518 38.875 44.5096 39.7542C43.6693 41.9319 41.9404 43.6611 39.7614 44.5007C38.8825 44.843 37.5535 45.2527 35.1211 45.3604C32.4833 45.4777 31.6921 45.5069 25.0196 45.5069C18.3471 45.5069 17.5461 45.4777 14.9178 45.3604C12.4754 45.2527 11.1566 44.843 10.2774 44.5007C9.19316 44.1007 8.20632 43.4652 7.40535 42.6354C6.57491 41.8243 5.93991 40.8479 5.53921 39.7638C5.19728 38.8847 4.78702 37.5562 4.67982 35.1243C4.56228 32.4867 4.53325 31.6958 4.53325 25.0243C4.53325 18.3527 4.56228 17.552 4.67982 14.925C4.78702 12.4827 5.19728 11.1646 5.53921 10.2854C5.93991 9.2007 6.57491 8.21457 7.41518 7.41318C8.22579 6.58336 9.20272 5.94864 10.2873 5.54792C11.1665 5.20625 12.4954 4.79584 14.9278 4.6882C17.5655 4.57153 18.357 4.54167 25.0292 4.54167C31.7114 4.54167 32.5026 4.57153 35.1307 4.6882C37.5737 4.79584 38.8921 5.20625 39.7719 5.54792C40.8553 5.94864 41.843 6.58336 42.6439 7.41318C43.4737 8.22434 44.1088 9.2007 44.5096 10.2854C44.8518 11.1646 45.2623 12.4923 45.3693 14.925C45.4868 17.5618 45.5158 18.3527 45.5158 25.0243C45.5158 31.6958 45.4868 32.4771 45.3693 35.1145Z" fill="#33FF00"/>
<path d="M26.01 12.3223C18.634 12.3223 12.6494 18.1519 12.6494 25.3383C12.6494 32.5247 18.634 38.3543 26.01 38.3543C33.3867 38.3543 39.3704 32.5247 39.3704 25.3383C39.3704 18.1519 33.3867 12.3223 26.01 12.3223ZM26.01 33.7815C21.2249 33.7815 17.3434 30.0004 17.3434 25.3383C17.3434 20.6762 21.2249 16.8951 26.01 16.8951C30.7957 16.8951 34.6767 20.6762 34.6767 25.3383C34.6767 30.0004 30.7957 33.7815 26.01 33.7815Z" fill="#33FF00"/>
<path d="M43.0186 11.8092C43.0186 13.4868 41.6219 14.8478 39.8986 14.8478C38.1762 14.8478 36.7795 13.4868 36.7795 11.8092C36.7795 10.1308 38.1762 8.77051 39.8986 8.77051C41.6219 8.77051 43.0186 10.1308 43.0186 11.8092Z" fill="#33FF00"/>
</svg>
