<svg width="30" height="22" viewBox="0 0 30 22" fill="none" xmlns="http://www.w3.org/2000/svg">
<path d="M29.7435 10.332L20.744 0.332591C20.552 0.120601 20.284 0.000610352 20 0.000610352H14.0003C13.6064 0.000610352 13.2484 0.23259 13.0864 0.59257C12.9264 0.95455 12.9924 1.37653 13.2564 1.66851L21.6539 11L13.2564 20.3295C12.9924 20.6235 12.9244 21.0455 13.0864 21.4054C13.2484 21.7674 13.6064 21.9994 14.0003 21.9994H20C20.284 21.9994 20.552 21.8774 20.744 21.6694L29.7435 11.67C30.0855 11.29 30.0855 10.71 29.7435 10.332Z" fill="#33FF00"/>
<path d="M16.7442 10.332L7.7447 0.332591C7.55272 0.120601 7.28473 0.000610352 7.00075 0.000610352H1.00107C0.607092 0.000610352 0.249111 0.23259 0.0871198 0.59257C-0.0728715 0.95455 -0.0068751 1.37653 0.257111 1.66851L8.65466 11L0.257111 20.3295C-0.0068751 20.6235 -0.0748714 21.0455 0.0871198 21.4054C0.249111 21.7674 0.607092 21.9994 1.00107 21.9994H7.00075C7.28473 21.9994 7.55272 21.8774 7.7447 21.6694L16.7442 11.67C17.0862 11.29 17.0862 10.71 16.7442 10.332Z" fill="#33FF00"/>
</svg>
