<svg width="65" height="50" viewBox="0 0 65 50" fill="none" xmlns="http://www.w3.org/2000/svg">
<path d="M60.8788 0H4.12124C1.84852 0 0 1.84625 0 4.11555V45.8844C0 48.1537 1.84852 50 4.12124 50H60.8788C63.1515 50 65 48.1537 65 45.8844V4.11555C65 1.84625 63.1515 0 60.8788 0ZM55.5887 2.32917L32.5 19.1335L9.4113 2.32917H55.5887ZM7.3085 47.6708H4.12124C3.13484 47.6708 2.332 46.8694 2.332 45.8844V9.68597L7.3085 13.3076V47.6708ZM55.3583 47.6708H9.64169V15.0056L31.8135 31.1431C32.0176 31.2919 32.2582 31.3665 32.5 31.3665C32.7418 31.3665 32.9824 31.2919 33.1865 31.1431L55.3583 15.0054V47.6708ZM62.668 45.8844C62.668 46.8694 61.8652 47.6708 60.8788 47.6708H57.6915V13.3076L62.668 9.68597V45.8844ZM62.668 6.80375L32.5 28.7607L2.332 6.80375V4.11555C2.332 3.13055 3.13484 2.32917 4.12124 2.32917H5.45091L31.8135 21.5157C32.0176 21.6647 32.2582 21.7393 32.5 21.7393C32.7418 21.7393 32.9824 21.6647 33.1865 21.5157L59.548 2.32917H60.8788C61.8652 2.32917 62.6668 3.13055 62.6668 4.11555L62.668 6.80375Z" fill="white"/>
</svg>
