<svg width="51" height="32" viewBox="0 0 51 32" fill="none" xmlns="http://www.w3.org/2000/svg">
<path d="M1.21628 28.2005L3.62462 30.6059C4.45916 31.3966 5.43345 31.7916 6.54525 31.7907C7.67998 31.7899 8.64209 31.3934 9.43316 30.6014L25.0183 14.9919L40.6273 30.577C41.4195 31.3677 42.3824 31.7628 43.5167 31.7619C44.6291 31.761 45.6025 31.3645 46.436 30.5725L48.809 28.1634C49.6215 27.3502 50.0271 26.3761 50.0262 25.2421C50.0254 24.0869 49.6178 23.1245 48.8047 22.355L27.8965 1.47886C27.1253 0.666762 26.1627 0.260826 25.0071 0.261714C23.8731 0.262585 22.8998 0.669896 22.0881 1.48332L1.21193 22.3916C0.420864 23.184 0.02549 24.1469 0.0263611 25.2805C0.0271057 26.3934 0.423964 27.3663 1.21628 28.2005Z" fill="#33FF00"/>
</svg>
