<svg width="778" height="832" viewBox="0 0 778 832" fill="none" xmlns="http://www.w3.org/2000/svg">
<path d="M701.731 311.421L175.556 224.275C169.196 223.222 162.657 226.25 158.669 232.096C154.682 237.941 153.931 245.599 156.731 251.87L388.407 770.731C391.227 777.046 397.156 780.86 403.69 780.558C410.223 780.257 416.22 775.896 419.146 769.316L492.161 605.146L604.65 608.613C610.384 608.79 615.964 605.778 619.499 600.595C623.034 595.412 624.053 588.752 622.21 582.871L586.067 467.486L709.519 343.648C714.499 338.654 716.543 331.15 714.898 324.347C713.245 317.496 708.135 312.482 701.731 311.421ZM581.472 570.186L491.208 567.405L384.225 412.459L552.471 477.598L581.472 570.186ZM562.892 441.092L341.485 355.37C334.399 352.627 326.276 355.482 321.58 362.366C316.884 369.249 316.753 378.495 321.259 385.021L462.047 588.924L404.199 718.991L202.417 267.078L660.7 342.979L562.892 441.092Z" fill="url(#paint0_linear_763_6)"/>
<defs>
<linearGradient id="paint0_linear_763_6" x1="619.5" y1="600.594" x2="133.466" y2="269.042" gradientUnits="userSpaceOnUse">
<stop/>
<stop offset="1" stop-color="#33FF00"/>
</linearGradient>
</defs>
</svg>
