<svg width="93" height="18" viewBox="0 0 93 18" fill="none" xmlns="http://www.w3.org/2000/svg">
<path d="M20.8367 7.15C20.8367 6.41 21.1517 5.79 21.7817 5.29C22.4117 4.79 23.2617 4.54 24.3317 4.54C25.4117 4.54 26.2817 4.785 26.9417 5.275C27.6017 5.765 27.9517 6.435 27.9917 7.285H25.3667C25.3367 6.995 25.2367 6.8 25.0667 6.7C24.8967 6.59 24.6417 6.535 24.3017 6.535C23.6317 6.535 23.2967 6.74 23.2967 7.15C23.2967 7.52 23.7067 7.775 24.5267 7.915C25.3567 8.055 26.1117 8.27 26.7917 8.56C27.1417 8.7 27.4317 8.935 27.6617 9.265C27.9017 9.585 28.0217 9.98 28.0217 10.45C28.0217 11.23 27.6867 11.87 27.0167 12.37C26.3467 12.86 25.5017 13.105 24.4817 13.105C23.4617 13.105 22.6117 12.875 21.9317 12.415C21.2517 11.945 20.8817 11.255 20.8217 10.345H23.4467C23.5167 10.855 23.8767 11.11 24.5267 11.11C24.8267 11.11 25.0717 11.04 25.2617 10.9C25.4617 10.76 25.5617 10.58 25.5617 10.36C25.5617 10.14 25.3967 9.965 25.0667 9.835C24.7467 9.705 24.3567 9.595 23.8967 9.505C23.4367 9.415 22.9717 9.305 22.5017 9.175C22.0417 9.035 21.6467 8.8 21.3167 8.47C20.9967 8.13 20.8367 7.69 20.8367 7.15ZM32.0671 3.685C31.7771 3.975 31.4221 4.12 31.0021 4.12C30.5821 4.12 30.2271 3.975 29.9371 3.685C29.6471 3.395 29.5021 3.04 29.5021 2.62C29.5021 2.19 29.6471 1.83 29.9371 1.54C30.2271 1.25 30.5821 1.105 31.0021 1.105C31.4221 1.105 31.7771 1.25 32.0671 1.54C32.3571 1.83 32.5021 2.19 32.5021 2.62C32.5021 3.04 32.3571 3.395 32.0671 3.685ZM29.7271 13V4.63H32.2921V13H29.7271ZM37.1114 4.63V5.86C37.6414 4.98 38.4864 4.54 39.6464 4.54C40.6064 4.54 41.3814 4.86 41.9714 5.5C42.5714 6.14 42.8714 7.01 42.8714 8.11V13H40.3214V8.455C40.3214 7.915 40.1764 7.5 39.8864 7.21C39.6064 6.91 39.2164 6.76 38.7164 6.76C38.2164 6.76 37.8214 6.91 37.5314 7.21C37.2514 7.5 37.1114 7.915 37.1114 8.455V13H34.5464V4.63H37.1114ZM48.6043 10.825H49.5193V13H48.2143C47.2743 13 46.5443 12.795 46.0243 12.385C45.5143 11.965 45.2593 11.25 45.2593 10.24V6.76H44.4793V4.63H45.2593V2.59H47.8243V4.63H49.5043V6.76H47.8243V10.24C47.8243 10.63 48.0843 10.825 48.6043 10.825ZM54.8299 13.105C53.6099 13.105 52.6099 12.715 51.8299 11.935C51.0499 11.145 50.6599 10.1 50.6599 8.8C50.6599 7.5 51.0449 6.465 51.8149 5.695C52.5949 4.925 53.5999 4.54 54.8299 4.54C56.0599 4.54 57.0799 4.92 57.8899 5.68C58.6999 6.44 59.1049 7.495 59.1049 8.845C59.1049 9.135 59.0849 9.405 59.0449 9.655H53.2849C53.3349 10.025 53.4999 10.33 53.7799 10.57C54.0599 10.8 54.3599 10.915 54.6799 10.915C55.0099 10.915 55.2549 10.885 55.4149 10.825C55.5749 10.755 55.6899 10.69 55.7599 10.63C55.8399 10.56 55.9399 10.45 56.0599 10.3H58.8349C58.5949 11.14 58.1149 11.82 57.3949 12.34C56.6749 12.85 55.8199 13.105 54.8299 13.105ZM56.4349 8.05C56.3949 7.66 56.2249 7.345 55.9249 7.105C55.6249 6.855 55.2699 6.73 54.8599 6.73C54.4499 6.73 54.1049 6.855 53.8249 7.105C53.5449 7.345 53.3699 7.66 53.2999 8.05H56.4349ZM64.3074 10.825H65.2224V13H63.9174C62.9774 13 62.2474 12.795 61.7274 12.385C61.2174 11.965 60.9624 11.25 60.9624 10.24V6.76H60.1824V4.63H60.9624V2.59H63.5274V4.63H65.2074V6.76H63.5274V10.24C63.5274 10.63 63.7874 10.825 64.3074 10.825ZM69.318 3.685C69.028 3.975 68.673 4.12 68.253 4.12C67.833 4.12 67.478 3.975 67.188 3.685C66.898 3.395 66.753 3.04 66.753 2.62C66.753 2.19 66.898 1.83 67.188 1.54C67.478 1.25 67.833 1.105 68.253 1.105C68.673 1.105 69.028 1.25 69.318 1.54C69.608 1.83 69.753 2.19 69.753 2.62C69.753 3.04 69.608 3.395 69.318 3.685ZM66.978 13V4.63H69.543V13H66.978ZM77.6474 4.63V6.745L74.4374 10.885H77.6474V13H71.4224V10.885L74.6324 6.745H71.4224V4.63H77.6474ZM84.6171 10.345C84.9871 9.985 85.1721 9.475 85.1721 8.815C85.1721 8.155 84.9871 7.65 84.6171 7.3C84.2471 6.94 83.8221 6.76 83.3421 6.76C82.8621 6.76 82.4371 6.94 82.0671 7.3C81.6971 7.66 81.5121 8.17 81.5121 8.83C81.5121 9.49 81.6971 10 82.0671 10.36C82.4371 10.71 82.8621 10.885 83.3421 10.885C83.8221 10.885 84.2471 10.705 84.6171 10.345ZM80.0121 11.905C79.2721 11.105 78.9021 10.08 78.9021 8.83C78.9021 7.58 79.2721 6.555 80.0121 5.755C80.7521 4.945 81.6521 4.54 82.7121 4.54C83.7821 4.54 84.6021 4.935 85.1721 5.725V4.63H87.7371V13H85.1721V11.785C84.5521 12.665 83.7221 13.105 82.6821 13.105C81.6421 13.105 80.7521 12.705 80.0121 11.905Z" fill="white"/>
<path d="M92.1957 11.605C92.1957 11.995 92.0607 12.325 91.7907 12.595C91.5207 12.865 91.1857 13 90.7857 13C90.3957 13 90.0657 12.865 89.7957 12.595C89.5257 12.325 89.3907 11.995 89.3907 11.605C89.3907 11.205 89.5257 10.87 89.7957 10.6C90.0657 10.33 90.3957 10.195 90.7857 10.195C91.1857 10.195 91.5207 10.33 91.7907 10.6C92.0607 10.87 92.1957 11.205 92.1957 11.605Z" fill="#33FF00"/>
<path d="M5.33115 8.8455L0.00112415 17.4085L18.6004 8.88696L0.143977 0.0577224L5.33161 8.7077C5.32598 8.73064 5.31707 8.75163 5.31687 8.77579C5.31656 8.80005 5.3259 8.82247 5.33115 8.8455ZM5.95696 9.10137L16.3954 9.18772L1.71673 15.9134L5.95696 9.10137ZM16.4006 8.54986L5.96224 8.46351L1.83529 1.58165L16.4006 8.54986Z" fill="#33FF00"/>
</svg>
