<svg width="58" height="50" viewBox="0 0 58 50" fill="none" xmlns="http://www.w3.org/2000/svg">
<path d="M52.0387 12.4609C52.0755 13.0077 52.0755 13.5548 52.0755 14.1015C52.0755 30.7811 40.1148 50 18.2534 50C11.5187 50 5.2628 47.9296 0 44.336C0.956295 44.4532 1.87704 44.4922 2.87017 44.4922C8.4276 44.4922 13.5431 42.5001 17.6286 39.1016C12.4026 38.9844 8.02246 35.3516 6.51372 30.3515C7.25031 30.4687 7.98564 30.5468 8.75906 30.5468C9.82584 30.5468 10.8939 30.3905 11.887 30.1172C6.44005 28.9452 2.35583 23.8672 2.35583 17.7344V17.5782C3.93822 18.5157 5.7784 19.1016 7.72782 19.1796C4.5262 16.9139 2.42946 13.0469 2.42946 8.67183C2.42946 6.32815 3.01746 4.17965 4.04868 2.30464C9.89948 9.96089 18.6954 14.9608 28.558 15.5077C28.3739 14.5702 28.2634 13.5938 28.2634 12.6171C28.2634 5.66398 33.563 0 40.1517 0C43.5743 0 46.6654 1.52344 48.8371 3.98438C51.5231 3.43753 54.0986 2.38278 56.3807 0.937514C55.4981 3.86726 53.6211 6.32815 51.1548 7.89065C53.5474 7.61734 55.8664 6.91403 58 5.93755C56.3808 8.43739 54.3564 10.6639 52.0387 12.4609Z" fill="#33FF00"/>
</svg>
